<svg id="visual" viewBox="0 0 900 600" width="900" height="600" xmlns="http://www.w3.org/2000/svg" xmlns:xlink="http://www.w3.org/1999/xlink" version="1.1"><rect x="0" y="0" width="900" height="600" fill="#0e1c25"></rect><defs><linearGradient id="grad1_0" x1="33.3%" y1="100%" x2="100%" y2="0%"><stop offset="20%" stop-color="#c65e38" stop-opacity="1"></stop><stop offset="80%" stop-color="#c65e38" stop-opacity="1"></stop></linearGradient></defs><defs><linearGradient id="grad1_1" x1="33.3%" y1="100%" x2="100%" y2="0%"><stop offset="20%" stop-color="#c65e38" stop-opacity="1"></stop><stop offset="80%" stop-color="#b34651" stop-opacity="1"></stop></linearGradient></defs><defs><linearGradient id="grad1_2" x1="33.3%" y1="100%" x2="100%" y2="0%"><stop offset="20%" stop-color="#913b61" stop-opacity="1"></stop><stop offset="80%" stop-color="#b34651" stop-opacity="1"></stop></linearGradient></defs><defs><linearGradient id="grad1_3" x1="33.3%" y1="100%" x2="100%" y2="0%"><stop offset="20%" stop-color="#913b61" stop-opacity="1"></stop><stop offset="80%" stop-color="#663863" stop-opacity="1"></stop></linearGradient></defs><defs><linearGradient id="grad1_4" x1="33.3%" y1="100%" x2="100%" y2="0%"><stop offset="20%" stop-color="#3c3357" stop-opacity="1"></stop><stop offset="80%" stop-color="#663863" stop-opacity="1"></stop></linearGradient></defs><defs><linearGradient id="grad1_5" x1="33.3%" y1="100%" x2="100%" y2="0%"><stop offset="20%" stop-color="#3c3357" stop-opacity="1"></stop><stop offset="80%" stop-color="#1b2940" stop-opacity="1"></stop></linearGradient></defs><defs><linearGradient id="grad1_6" x1="33.3%" y1="100%" x2="100%" y2="0%"><stop offset="20%" stop-color="#0e1c25" stop-opacity="1"></stop><stop offset="80%" stop-color="#1b2940" stop-opacity="1"></stop></linearGradient></defs><defs><linearGradient id="grad2_0" x1="0%" y1="100%" x2="66.7%" y2="0%"><stop offset="20%" stop-color="#c65e38" stop-opacity="1"></stop><stop offset="80%" stop-color="#c65e38" stop-opacity="1"></stop></linearGradient></defs><defs><linearGradient id="grad2_1" x1="0%" y1="100%" x2="66.7%" y2="0%"><stop offset="20%" stop-color="#b34651" stop-opacity="1"></stop><stop offset="80%" stop-color="#c65e38" stop-opacity="1"></stop></linearGradient></defs><defs><linearGradient id="grad2_2" x1="0%" y1="100%" x2="66.7%" y2="0%"><stop offset="20%" stop-color="#b34651" stop-opacity="1"></stop><stop offset="80%" stop-color="#913b61" stop-opacity="1"></stop></linearGradient></defs><defs><linearGradient id="grad2_3" x1="0%" y1="100%" x2="66.7%" y2="0%"><stop offset="20%" stop-color="#663863" stop-opacity="1"></stop><stop offset="80%" stop-color="#913b61" stop-opacity="1"></stop></linearGradient></defs><defs><linearGradient id="grad2_4" x1="0%" y1="100%" x2="66.7%" y2="0%"><stop offset="20%" stop-color="#663863" stop-opacity="1"></stop><stop offset="80%" stop-color="#3c3357" stop-opacity="1"></stop></linearGradient></defs><defs><linearGradient id="grad2_5" x1="0%" y1="100%" x2="66.7%" y2="0%"><stop offset="20%" stop-color="#1b2940" stop-opacity="1"></stop><stop offset="80%" stop-color="#3c3357" stop-opacity="1"></stop></linearGradient></defs><defs><linearGradient id="grad2_6" x1="0%" y1="100%" x2="66.7%" y2="0%"><stop offset="20%" stop-color="#1b2940" stop-opacity="1"></stop><stop offset="80%" stop-color="#0e1c25" stop-opacity="1"></stop></linearGradient></defs><g transform="translate(900, 600)"><path d="M-432.7 0C-420.2 -29.4 -407.7 -58.8 -401.7 -91.7C-395.6 -124.6 -395.9 -161 -373 -179.6C-350.1 -198.3 -303.8 -199.2 -289.3 -230.7C-274.7 -262.2 -291.9 -324.3 -269.8 -338.3C-247.7 -352.3 -186.3 -318.2 -149.3 -309.9C-112.2 -301.7 -99.4 -319.4 -78.5 -344.1C-57.7 -368.9 -28.9 -400.8 0 -432.7L0 0Z" fill="#122333"></path><path d="M-370.9 0C-360.2 -25.2 -349.5 -50.4 -344.3 -78.6C-339.1 -106.8 -339.4 -138 -319.7 -154C-300 -170 -260.4 -170.7 -248 -197.7C-235.5 -224.7 -250.2 -278 -231.2 -289.9C-212.3 -301.9 -159.7 -272.7 -127.9 -265.7C-96.2 -258.6 -85.2 -273.8 -67.3 -295C-49.5 -316.2 -24.7 -343.5 0 -370.9L0 0Z" fill="#2a2f4d"></path><path d="M-309 0C-300.1 -21 -291.2 -42 -286.9 -65.5C-282.6 -89 -282.8 -115 -266.4 -128.3C-250 -141.6 -217 -142.3 -206.6 -164.8C-196.2 -187.3 -208.5 -231.6 -192.7 -241.6C-176.9 -251.6 -133.1 -227.3 -106.6 -221.4C-80.1 -215.5 -71 -228.1 -56.1 -245.8C-41.2 -263.5 -20.6 -286.3 0 -309L0 0Z" fill="#50365f"></path><path d="M-247.2 0C-240.1 -16.8 -233 -33.6 -229.5 -52.4C-226.1 -71.2 -226.3 -92 -213.1 -102.6C-200 -113.3 -173.6 -113.8 -165.3 -131.8C-157 -149.8 -166.8 -185.3 -154.2 -193.3C-141.5 -201.3 -106.5 -181.8 -85.3 -177.1C-64.1 -172.4 -56.8 -182.5 -44.9 -196.7C-33 -210.8 -16.5 -229 0 -247.2L0 0Z" fill="#7c3a64"></path><path d="M-185.4 0C-180.1 -12.6 -174.7 -25.2 -172.1 -39.3C-169.5 -53.4 -169.7 -69 -159.9 -77C-150 -85 -130.2 -85.4 -124 -98.9C-117.7 -112.4 -125.1 -139 -115.6 -145C-106.1 -151 -79.9 -136.4 -64 -132.8C-48.1 -129.3 -42.6 -136.9 -33.7 -147.5C-24.7 -158.1 -12.4 -171.8 0 -185.4L0 0Z" fill="#a43f5a"></path><path d="M-123.6 0C-120.1 -8.4 -116.5 -16.8 -114.8 -26.2C-113 -35.6 -113.1 -46 -106.6 -51.3C-100 -56.7 -86.8 -56.9 -82.7 -65.9C-78.5 -74.9 -83.4 -92.7 -77.1 -96.6C-70.8 -100.6 -53.2 -90.9 -42.6 -88.6C-32.1 -86.2 -28.4 -91.3 -22.4 -98.3C-16.5 -105.4 -8.2 -114.5 0 -123.6L0 0Z" fill="#bf5045"></path><path d="M-61.8 0C-60 -4.2 -58.2 -8.4 -57.4 -13.1C-56.5 -17.8 -56.6 -23 -53.3 -25.7C-50 -28.3 -43.4 -28.5 -41.3 -33C-39.2 -37.5 -41.7 -46.3 -38.5 -48.3C-35.4 -50.3 -26.6 -45.5 -21.3 -44.3C-16 -43.1 -14.2 -45.6 -11.2 -49.2C-8.2 -52.7 -4.1 -57.3 0 -61.8L0 0Z" fill="#c65e38"></path></g><g transform="translate(0, 0)"><path d="M432.7 0C392 25 351.4 50.1 334.4 76.3C317.4 102.6 324 130.1 312.6 150.6C301.3 171 272.1 184.4 256.4 204.5C240.8 224.6 238.8 251.5 232.6 291.6C226.3 331.7 215.8 385 187.7 389.8C159.7 394.6 114.1 350.9 79.9 350C45.7 349.1 22.8 390.9 0 432.7L0 0Z" fill="#122333"></path><path d="M370.9 0C336 21.5 301.2 42.9 286.6 65.4C272 87.9 277.7 111.5 268 129C258.3 146.6 233.2 158 219.8 175.3C206.4 192.5 204.7 215.6 199.3 250C194 284.3 185 330 160.9 334.1C136.9 338.2 97.8 300.8 68.5 300C39.2 299.2 19.6 335 0 370.9L0 0Z" fill="#2a2f4d"></path><path d="M309 0C280 17.9 251 35.8 238.9 54.5C226.7 73.3 231.4 92.9 223.3 107.5C215.2 122.1 194.3 131.7 183.2 146.1C172 160.5 170.6 179.7 166.1 208.3C161.6 236.9 154.1 275 134.1 278.4C114.1 281.9 81.5 250.7 57.1 250C32.6 249.3 16.3 279.2 0 309L0 0Z" fill="#50365f"></path><path d="M247.2 0C224 14.3 200.8 28.6 191.1 43.6C181.4 58.6 185.1 74.4 178.6 86C172.2 97.7 155.5 105.4 146.5 116.9C137.6 128.4 136.5 143.7 132.9 166.6C129.3 189.6 123.3 220 107.3 222.8C91.2 225.5 65.2 200.5 45.6 200C26.1 199.5 13.1 223.3 0 247.2L0 0Z" fill="#7c3a64"></path><path d="M185.4 0C168 10.7 150.6 21.5 143.3 32.7C136 44 138.8 55.8 134 64.5C129.1 73.3 116.6 79 109.9 87.6C103.2 96.3 102.4 107.8 99.7 125C97 142.2 92.5 165 80.5 167.1C68.4 169.1 48.9 150.4 34.2 150C19.6 149.6 9.8 167.5 0 185.4L0 0Z" fill="#a43f5a"></path><path d="M123.6 0C112 7.2 100.4 14.3 95.5 21.8C90.7 29.3 92.6 37.2 89.3 43C86.1 48.9 77.7 52.7 73.3 58.4C68.8 64.2 68.2 71.9 66.4 83.3C64.7 94.8 61.7 110 53.6 111.4C45.6 112.7 32.6 100.3 22.8 100C13.1 99.7 6.5 111.7 0 123.6L0 0Z" fill="#bf5045"></path><path d="M61.8 0C56 3.6 50.2 7.2 47.8 10.9C45.3 14.7 46.3 18.6 44.7 21.5C43 24.4 38.9 26.3 36.6 29.2C34.4 32.1 34.1 35.9 33.2 41.7C32.3 47.4 30.8 55 26.8 55.7C22.8 56.4 16.3 50.1 11.4 50C6.5 49.9 3.3 55.8 0 61.8L0 0Z" fill="#c65e38"></path></g></svg>