<svg id="visual" viewBox="0 0 960 540" width="960" height="540" xmlns="http://www.w3.org/2000/svg" xmlns:xlink="http://www.w3.org/1999/xlink" version="1.1"><g stroke-width="1" stroke-linejoin="bevel"><path d="M485.6 251.4L445.4 247.4L454.4 298.6Z" fill="#2f2c43" stroke="#2f2c43"></path><path d="M445.4 247.4L381.1 289.6L454.4 298.6Z" fill="#262335" stroke="#262335"></path><path d="M454.4 298.6L551.6 306.6L485.6 251.4Z" fill="#191724" stroke="#191724"></path><path d="M589.9 206.4L464.4 171.3L485.6 251.4Z" fill="#1c1a28" stroke="#1c1a28"></path><path d="M485.6 251.4L464.4 171.3L445.4 247.4Z" fill="#36324d" stroke="#36324d"></path><path d="M445.4 247.4L317.1 269.4L381.1 289.6Z" fill="#262335" stroke="#262335"></path><path d="M551.6 306.6L589.9 206.4L485.6 251.4Z" fill="#393552" stroke="#393552"></path><path d="M353.1 122.3L317.1 269.4L445.4 247.4Z" fill="#36324d" stroke="#36324d"></path><path d="M359.1 396.7L451.4 421.7L454.4 298.6Z" fill="#2f2c43" stroke="#2f2c43"></path><path d="M454.4 298.6L451.4 421.7L551.6 306.6Z" fill="#332f48" stroke="#332f48"></path><path d="M359.1 396.7L454.4 298.6L381.1 289.6Z" fill="#393552" stroke="#393552"></path><path d="M284.8 293.6L359.1 396.7L381.1 289.6Z" fill="#29263a" stroke="#29263a"></path><path d="M609.9 356.7L620.9 322.6L551.6 306.6Z" fill="#2f2c43" stroke="#2f2c43"></path><path d="M551.6 306.6L657.2 268.6L589.9 206.4Z" fill="#29263a" stroke="#29263a"></path><path d="M548.6 422.7L609.9 356.7L551.6 306.6Z" fill="#393552" stroke="#393552"></path><path d="M359.1 396.7L440.4 442.9L451.4 421.7Z" fill="#1c1a28" stroke="#1c1a28"></path><path d="M451.4 421.7L548.6 422.7L551.6 306.6Z" fill="#36324d" stroke="#36324d"></path><path d="M440.4 442.9L548.6 422.7L451.4 421.7Z" fill="#1c1a28" stroke="#1c1a28"></path><path d="M562.6 120.3L472.4 94.1L464.4 171.3Z" fill="#1f1d2d" stroke="#1f1d2d"></path><path d="M464.4 171.3L353.1 122.3L445.4 247.4Z" fill="#36324d" stroke="#36324d"></path><path d="M704.2 201.4L599.9 156.3L589.9 206.4Z" fill="#262335" stroke="#262335"></path><path d="M589.9 206.4L562.6 120.3L464.4 171.3Z" fill="#222031" stroke="#222031"></path><path d="M225.8 208.4L284.8 293.6L317.1 269.4Z" fill="#332f48" stroke="#332f48"></path><path d="M317.1 269.4L284.8 293.6L381.1 289.6Z" fill="#393552" stroke="#393552"></path><path d="M599.9 156.3L562.6 120.3L589.9 206.4Z" fill="#332f48" stroke="#332f48"></path><path d="M472.4 94.1L353.1 122.3L464.4 171.3Z" fill="#222031" stroke="#222031"></path><path d="M677.2 390.7L657.2 268.6L620.9 322.6Z" fill="#332f48" stroke="#332f48"></path><path d="M620.9 322.6L657.2 268.6L551.6 306.6Z" fill="#1c1a28" stroke="#1c1a28"></path><path d="M605.9 63.1L536.6 81.1L562.6 120.3Z" fill="#36324d" stroke="#36324d"></path><path d="M562.6 120.3L536.6 81.1L472.4 94.1Z" fill="#1c1a28" stroke="#1c1a28"></path><path d="M272.8 486.9L373.1 462.9L359.1 396.7Z" fill="#2f2c43" stroke="#2f2c43"></path><path d="M359.1 396.7L373.1 462.9L440.4 442.9Z" fill="#222031" stroke="#222031"></path><path d="M563.6 488.9L571.9 473.9L548.6 422.7Z" fill="#29263a" stroke="#29263a"></path><path d="M563.6 488.9L548.6 422.7L440.4 442.9Z" fill="#1f1d2d" stroke="#1f1d2d"></path><path d="M548.6 422.7L571.9 473.9L609.9 356.7Z" fill="#222031" stroke="#222031"></path><path d="M609.9 356.7L677.2 390.7L620.9 322.6Z" fill="#191724" stroke="#191724"></path><path d="M472.4 94.1L351.1 67.1L353.1 122.3Z" fill="#36324d" stroke="#36324d"></path><path d="M353.1 122.3L225.8 208.4L317.1 269.4Z" fill="#2f2c43" stroke="#2f2c43"></path><path d="M444.4 0L351.1 67.1L472.4 94.1Z" fill="#262335" stroke="#262335"></path><path d="M200.5 273.6L249.8 364.7L284.8 293.6Z" fill="#29263a" stroke="#29263a"></path><path d="M284.8 293.6L249.8 364.7L359.1 396.7Z" fill="#1c1a28" stroke="#1c1a28"></path><path d="M503.6 540L563.6 488.9L440.4 442.9Z" fill="#1f1d2d" stroke="#1f1d2d"></path><path d="M684.2 470.9L677.2 390.7L571.9 473.9Z" fill="#191724" stroke="#191724"></path><path d="M571.9 473.9L677.2 390.7L609.9 356.7Z" fill="#262335" stroke="#262335"></path><path d="M227.8 123.3L225.8 208.4L353.1 122.3Z" fill="#1c1a28" stroke="#1c1a28"></path><path d="M792.5 244.4L704.2 201.4L657.2 268.6Z" fill="#1c1a28" stroke="#1c1a28"></path><path d="M657.2 268.6L704.2 201.4L589.9 206.4Z" fill="#2c293f" stroke="#2c293f"></path><path d="M599.9 156.3L605.9 63.1L562.6 120.3Z" fill="#191724" stroke="#191724"></path><path d="M712.2 138.3L605.9 63.1L599.9 156.3Z" fill="#1f1d2d" stroke="#1f1d2d"></path><path d="M522.6 0L444.4 0L472.4 94.1Z" fill="#332f48" stroke="#332f48"></path><path d="M225.8 208.4L207.5 232.4L284.8 293.6Z" fill="#222031" stroke="#222031"></path><path d="M207.5 232.4L200.5 273.6L284.8 293.6Z" fill="#29263a" stroke="#29263a"></path><path d="M361.1 540L434.4 540L373.1 462.9Z" fill="#2c293f" stroke="#2c293f"></path><path d="M373.1 462.9L434.4 540L440.4 442.9Z" fill="#1f1d2d" stroke="#1f1d2d"></path><path d="M522.6 0L472.4 94.1L536.6 81.1Z" fill="#29263a" stroke="#29263a"></path><path d="M434.4 540L503.6 540L440.4 442.9Z" fill="#332f48" stroke="#332f48"></path><path d="M572.9 0L522.6 0L536.6 81.1Z" fill="#393552" stroke="#393552"></path><path d="M225.8 208.4L206.5 126.3L207.5 232.4Z" fill="#191724" stroke="#191724"></path><path d="M245.8 60.1L227.8 123.3L353.1 122.3Z" fill="#222031" stroke="#222031"></path><path d="M206.5 126.3L227.8 123.3L245.8 60.1Z" fill="#2c293f" stroke="#2c293f"></path><path d="M704.2 201.4L712.2 138.3L599.9 156.3Z" fill="#36324d" stroke="#36324d"></path><path d="M605.9 63.1L572.9 0L536.6 81.1Z" fill="#2c293f" stroke="#2c293f"></path><path d="M301.8 540L361.1 540L373.1 462.9Z" fill="#262335" stroke="#262335"></path><path d="M249.8 364.7L272.8 486.9L359.1 396.7Z" fill="#2c293f" stroke="#2c293f"></path><path d="M212.5 471.9L272.8 486.9L249.8 364.7Z" fill="#393552" stroke="#393552"></path><path d="M737.2 0L572.9 0L605.9 63.1Z" fill="#36324d" stroke="#36324d"></path><path d="M245.8 60.1L353.1 122.3L351.1 67.1Z" fill="#1f1d2d" stroke="#1f1d2d"></path><path d="M227.8 123.3L206.5 126.3L225.8 208.4Z" fill="#262335" stroke="#262335"></path><path d="M98.3 328.6L148.5 398.7L200.5 273.6Z" fill="#36324d" stroke="#36324d"></path><path d="M638.9 540L571.9 473.9L563.6 488.9Z" fill="#393552" stroke="#393552"></path><path d="M638.9 540L684.2 470.9L571.9 473.9Z" fill="#332f48" stroke="#332f48"></path><path d="M792.5 244.4L749.5 152.3L704.2 201.4Z" fill="#222031" stroke="#222031"></path><path d="M704.2 201.4L749.5 152.3L712.2 138.3Z" fill="#1c1a28" stroke="#1c1a28"></path><path d="M312.1 0L245.8 60.1L351.1 67.1Z" fill="#332f48" stroke="#332f48"></path><path d="M792.5 244.4L657.2 268.6L812.5 295.6Z" fill="#393552" stroke="#393552"></path><path d="M712.2 138.3L729.2 53.1L605.9 63.1Z" fill="#29263a" stroke="#29263a"></path><path d="M444.4 0L312.1 0L351.1 67.1Z" fill="#36324d" stroke="#36324d"></path><path d="M272.8 486.9L301.8 540L373.1 462.9Z" fill="#1f1d2d" stroke="#1f1d2d"></path><path d="M503.6 540L638.9 540L563.6 488.9Z" fill="#393552" stroke="#393552"></path><path d="M148.5 398.7L212.5 471.9L249.8 364.7Z" fill="#262335" stroke="#262335"></path><path d="M272.8 486.9L150.5 540L301.8 540Z" fill="#1f1d2d" stroke="#1f1d2d"></path><path d="M812.5 295.6L657.2 268.6L677.2 390.7Z" fill="#222031" stroke="#222031"></path><path d="M98.3 328.6L200.5 273.6L61.3 192.4Z" fill="#262335" stroke="#262335"></path><path d="M200.5 273.6L148.5 398.7L249.8 364.7Z" fill="#1c1a28" stroke="#1c1a28"></path><path d="M638.9 540L674.2 540L684.2 470.9Z" fill="#191724" stroke="#191724"></path><path d="M799.5 408.7L812.5 295.6L677.2 390.7Z" fill="#36324d" stroke="#36324d"></path><path d="M749.5 152.3L729.2 53.1L712.2 138.3Z" fill="#393552" stroke="#393552"></path><path d="M737.2 0L729.2 53.1L805.5 0Z" fill="#1c1a28" stroke="#1c1a28"></path><path d="M799.5 408.7L677.2 390.7L684.2 470.9Z" fill="#29263a" stroke="#29263a"></path><path d="M823.5 106.1L729.2 53.1L749.5 152.3Z" fill="#393552" stroke="#393552"></path><path d="M312.1 0L229.8 0L245.8 60.1Z" fill="#332f48" stroke="#332f48"></path><path d="M245.8 60.1L157.5 38.1L206.5 126.3Z" fill="#2f2c43" stroke="#2f2c43"></path><path d="M61.3 192.4L200.5 273.6L207.5 232.4Z" fill="#36324d" stroke="#36324d"></path><path d="M800.5 451.9L799.5 408.7L684.2 470.9Z" fill="#262335" stroke="#262335"></path><path d="M77.3 146.3L207.5 232.4L206.5 126.3Z" fill="#393552" stroke="#393552"></path><path d="M746.5 540L800.5 451.9L684.2 470.9Z" fill="#36324d" stroke="#36324d"></path><path d="M799.5 408.7L841.7 369.7L812.5 295.6Z" fill="#2f2c43" stroke="#2f2c43"></path><path d="M229.8 0L157.5 38.1L245.8 60.1Z" fill="#222031" stroke="#222031"></path><path d="M823.5 106.1L749.5 152.3L792.5 244.4Z" fill="#332f48" stroke="#332f48"></path><path d="M729.2 53.1L737.2 0L605.9 63.1Z" fill="#191724" stroke="#191724"></path><path d="M674.2 540L746.5 540L684.2 470.9Z" fill="#29263a" stroke="#29263a"></path><path d="M879.7 436.9L841.7 369.7L799.5 408.7Z" fill="#222031" stroke="#222031"></path><path d="M812.5 295.6L856.7 270.4L792.5 244.4Z" fill="#1f1d2d" stroke="#1f1d2d"></path><path d="M879.7 280.6L856.7 270.4L812.5 295.6Z" fill="#222031" stroke="#222031"></path><path d="M98.3 328.6L97.3 419.7L148.5 398.7Z" fill="#222031" stroke="#222031"></path><path d="M148.5 398.7L97.3 419.7L212.5 471.9Z" fill="#1c1a28" stroke="#1c1a28"></path><path d="M212.5 471.9L150.5 540L272.8 486.9Z" fill="#393552" stroke="#393552"></path><path d="M863.7 110.1L823.5 106.1L792.5 244.4Z" fill="#2f2c43" stroke="#2f2c43"></path><path d="M157.5 38.1L77.3 146.3L206.5 126.3Z" fill="#262335" stroke="#262335"></path><path d="M0 364.7L58.3 435.9L97.3 419.7Z" fill="#2f2c43" stroke="#2f2c43"></path><path d="M229.8 0L158.5 0L157.5 38.1Z" fill="#191724" stroke="#191724"></path><path d="M157.5 38.1L59.3 111.1L77.3 146.3Z" fill="#393552" stroke="#393552"></path><path d="M77.3 146.3L61.3 192.4L207.5 232.4Z" fill="#222031" stroke="#222031"></path><path d="M97.3 419.7L150.5 540L212.5 471.9Z" fill="#393552" stroke="#393552"></path><path d="M841.7 369.7L879.7 280.6L812.5 295.6Z" fill="#393552" stroke="#393552"></path><path d="M889.7 126.3L863.7 110.1L792.5 244.4Z" fill="#332f48" stroke="#332f48"></path><path d="M889.7 126.3L792.5 244.4L856.7 270.4Z" fill="#222031" stroke="#222031"></path><path d="M823.5 106.1L805.5 0L729.2 53.1Z" fill="#1f1d2d" stroke="#1f1d2d"></path><path d="M118.3 0L59.3 111.1L157.5 38.1Z" fill="#1c1a28" stroke="#1c1a28"></path><path d="M0 139.3L0 201.4L61.3 192.4Z" fill="#1f1d2d" stroke="#1f1d2d"></path><path d="M834.7 0L805.5 0L823.5 106.1Z" fill="#2c293f" stroke="#2c293f"></path><path d="M0 364.7L97.3 419.7L98.3 328.6Z" fill="#2f2c43" stroke="#2f2c43"></path><path d="M97.3 419.7L85.3 540L150.5 540Z" fill="#1f1d2d" stroke="#1f1d2d"></path><path d="M0 280.6L98.3 328.6L61.3 192.4Z" fill="#2f2c43" stroke="#2f2c43"></path><path d="M158.5 0L118.3 0L157.5 38.1Z" fill="#262335" stroke="#262335"></path><path d="M841.7 369.7L960 338.6L879.7 280.6Z" fill="#262335" stroke="#262335"></path><path d="M800.5 451.9L879.7 436.9L799.5 408.7Z" fill="#393552" stroke="#393552"></path><path d="M851.7 540L879.7 436.9L800.5 451.9Z" fill="#1c1a28" stroke="#1c1a28"></path><path d="M960 229.4L889.7 126.3L856.7 270.4Z" fill="#393552" stroke="#393552"></path><path d="M863.7 110.1L834.7 0L823.5 106.1Z" fill="#262335" stroke="#262335"></path><path d="M960 229.4L856.7 270.4L879.7 280.6Z" fill="#262335" stroke="#262335"></path><path d="M960 81.1L834.7 0L863.7 110.1Z" fill="#191724" stroke="#191724"></path><path d="M0 201.4L0 280.6L61.3 192.4Z" fill="#332f48" stroke="#332f48"></path><path d="M58.3 435.9L85.3 540L97.3 419.7Z" fill="#191724" stroke="#191724"></path><path d="M0 540L85.3 540L58.3 435.9Z" fill="#2f2c43" stroke="#2f2c43"></path><path d="M0 139.3L77.3 146.3L59.3 111.1Z" fill="#393552" stroke="#393552"></path><path d="M0 139.3L61.3 192.4L77.3 146.3Z" fill="#29263a" stroke="#29263a"></path><path d="M746.5 540L851.7 540L800.5 451.9Z" fill="#332f48" stroke="#332f48"></path><path d="M0 280.6L0 364.7L98.3 328.6Z" fill="#1c1a28" stroke="#1c1a28"></path><path d="M0 93.1L0 139.3L59.3 111.1Z" fill="#29263a" stroke="#29263a"></path><path d="M0 364.7L0 439.9L58.3 435.9Z" fill="#2f2c43" stroke="#2f2c43"></path><path d="M0 0L0 93.1L59.3 111.1Z" fill="#2f2c43" stroke="#2f2c43"></path><path d="M960 338.6L960 229.4L879.7 280.6Z" fill="#332f48" stroke="#332f48"></path><path d="M889.7 126.3L960 81.1L863.7 110.1Z" fill="#222031" stroke="#222031"></path><path d="M960 338.6L841.7 369.7L960 353.7Z" fill="#262335" stroke="#262335"></path><path d="M960 353.7L841.7 369.7L879.7 436.9Z" fill="#332f48" stroke="#332f48"></path><path d="M960 483.9L960 353.7L879.7 436.9Z" fill="#222031" stroke="#222031"></path><path d="M960 229.4L960 151.3L889.7 126.3Z" fill="#222031" stroke="#222031"></path><path d="M960 151.3L960 81.1L889.7 126.3Z" fill="#1c1a28" stroke="#1c1a28"></path><path d="M0 439.9L0 540L58.3 435.9Z" fill="#29263a" stroke="#29263a"></path><path d="M118.3 0L0 0L59.3 111.1Z" fill="#262335" stroke="#262335"></path><path d="M851.7 540L960 483.9L879.7 436.9Z" fill="#1f1d2d" stroke="#1f1d2d"></path><path d="M851.7 540L960 540L960 483.9Z" fill="#191724" stroke="#191724"></path><path d="M960 81.1L960 0L834.7 0Z" fill="#1c1a28" stroke="#1c1a28"></path></g></svg>