<svg id="visual" viewBox="0 0 900 600" width="900" height="600" xmlns="http://www.w3.org/2000/svg" xmlns:xlink="http://www.w3.org/1999/xlink" version="1.1"><g stroke-width="1" stroke-linejoin="bevel"><path d="M464 262L563 166L432 114Z" fill="#122a39" stroke="#122a39"></path><path d="M432 114L304 144L464 262Z" fill="#143347" stroke="#143347"></path><path d="M554 0L442 0L432 114Z" fill="#17425d" stroke="#17425d"></path><path d="M432 114L306 0L304 144Z" fill="#122a39" stroke="#122a39"></path><path d="M563 166L554 0L432 114Z" fill="#143347" stroke="#143347"></path><path d="M464 262L607 341L563 166Z" fill="#194c6c" stroke="#194c6c"></path><path d="M563 166L774 0L554 0Z" fill="#143347" stroke="#143347"></path><path d="M295 338L464 403L464 262Z" fill="#122a39" stroke="#122a39"></path><path d="M464 262L464 403L607 341Z" fill="#184764" stroke="#184764"></path><path d="M304 144L295 338L464 262Z" fill="#17425d" stroke="#17425d"></path><path d="M442 0L306 0L432 114Z" fill="#102532" stroke="#102532"></path><path d="M304 144L163 291L295 338Z" fill="#17425d" stroke="#17425d"></path><path d="M607 341L762 194L563 166Z" fill="#15384e" stroke="#15384e"></path><path d="M754 436L740 330L607 341Z" fill="#143347" stroke="#143347"></path><path d="M607 341L740 330L762 194Z" fill="#143347" stroke="#143347"></path><path d="M128 0L164 172L304 144Z" fill="#184764" stroke="#184764"></path><path d="M572 600L620 470L464 403Z" fill="#163d55" stroke="#163d55"></path><path d="M464 403L620 470L607 341Z" fill="#0f202b" stroke="#0f202b"></path><path d="M164 172L163 291L304 144Z" fill="#163d55" stroke="#163d55"></path><path d="M295 338L291 478L464 403Z" fill="#102532" stroke="#102532"></path><path d="M762 194L774 0L563 166Z" fill="#102532" stroke="#102532"></path><path d="M135 405L291 478L295 338Z" fill="#194c6c" stroke="#194c6c"></path><path d="M900 259L900 194L762 194Z" fill="#184764" stroke="#184764"></path><path d="M762 194L900 194L774 0Z" fill="#102532" stroke="#102532"></path><path d="M620 470L754 436L607 341Z" fill="#194c6c" stroke="#194c6c"></path><path d="M306 0L128 0L304 144Z" fill="#132e40" stroke="#132e40"></path><path d="M0 282L135 405L163 291Z" fill="#0f202b" stroke="#0f202b"></path><path d="M0 282L163 291L164 172Z" fill="#102532" stroke="#102532"></path><path d="M163 291L135 405L295 338Z" fill="#0e1c25" stroke="#0e1c25"></path><path d="M900 259L762 194L740 330Z" fill="#17425d" stroke="#17425d"></path><path d="M291 478L413 600L464 403Z" fill="#0f202b" stroke="#0f202b"></path><path d="M620 470L743 600L754 436Z" fill="#132e40" stroke="#132e40"></path><path d="M340 600L413 600L291 478Z" fill="#17425d" stroke="#17425d"></path><path d="M754 436L900 259L740 330Z" fill="#0f202b" stroke="#0f202b"></path><path d="M413 600L572 600L464 403Z" fill="#143347" stroke="#143347"></path><path d="M174 600L340 600L291 478Z" fill="#194c6c" stroke="#194c6c"></path><path d="M900 194L900 0L774 0Z" fill="#184764" stroke="#184764"></path><path d="M128 0L0 149L164 172Z" fill="#17425d" stroke="#17425d"></path><path d="M0 149L0 282L164 172Z" fill="#184764" stroke="#184764"></path><path d="M135 405L174 600L291 478Z" fill="#132e40" stroke="#132e40"></path><path d="M572 600L743 600L620 470Z" fill="#163d55" stroke="#163d55"></path><path d="M754 436L900 493L900 259Z" fill="#0f202b" stroke="#0f202b"></path><path d="M128 0L0 0L0 149Z" fill="#0e1c25" stroke="#0e1c25"></path><path d="M0 461L174 600L135 405Z" fill="#0f202b" stroke="#0f202b"></path><path d="M743 600L900 493L754 436Z" fill="#15384e" stroke="#15384e"></path><path d="M0 282L0 461L135 405Z" fill="#0f202b" stroke="#0f202b"></path><path d="M743 600L900 600L900 493Z" fill="#102532" stroke="#102532"></path><path d="M0 461L0 600L174 600Z" fill="#17425d" stroke="#17425d"></path></g></svg>